<svg width="579" height="345" viewBox="0 0 579 345" xmlns="http://www.w3.org/2000/svg"><title>skcript_white</title><g fill-rule="evenodd"><path d="M142.531 86.31c.247-1.484.394-2.993.758-4.448 2.909-11.63 6.284-23.164 8.625-34.906 1.236-6.204 1.421-12.834.803-19.146-1.296-13.243-9.273-20.23-22.572-20.862-10.457-.497-20.181 2.543-29.503 6.763-29.89 13.534-53.517 34.366-71.223 61.947-5.528 8.61-10.114 17.672-12.648 27.649-4.424 17.421-.797 33.302 9.249 47.956 8.129 11.856 18.58 21.49 29.157 31.066 13.48 12.205 27.022 24.374 39.907 37.192 8.998 8.951 16.096 19.482 19.984 31.842 6.293 20.007-.779 36.955-19.772 45.876-6.146 2.886-12.82 4.914-19.458 6.433-13.86 3.172-27.972 4.147-42.151 2.606-3.799-.413-7.608-1.321-11.246-2.513-8.036-2.633-12.559-9.225-12.262-17.621.241-6.825 2.761-12.946 6.47-18.584.745-1.133 1.83-2.128 2.951-2.911 2.204-1.539 3.909-.917 3.984 1.725.078 2.717-.418 5.512-1.067 8.174-.759 3.107-2.251 6.045-2.896 9.166-1.068 5.174.825 8.395 6.025 9.004 7.84.917 15.774 1.394 23.668 1.398 10.742.006 21.433-1.179 31.698-4.539 4.028-1.318 8.026-3.142 11.56-5.463 6.486-4.259 9.238-10.533 7.886-18.312-1.613-9.276-5.848-17.397-11.232-25.003-9.604-13.565-21.785-24.688-33.821-35.971-12.882-12.077-26.215-23.719-36.909-37.944C7.947 152.852.789 137.594.656 119.637c-.117-15.874 5.16-30.164 13.436-43.317C34.354 44.118 62.335 20.979 97.655 6.857c10.409-4.162 21.217-6.879 32.609-5.952 16.916 1.377 26.533 11.315 27.257 28.3.479 11.229-2.602 21.825-6.068 32.34-2.647 8.031-5.193 16.096-7.803 24.14-.089.275-.372.487-.565.728l-.554-.103"/><path d="M226.363 243.317s-.347-5.478-14.667.037c-14.319 5.516-30.28 20.89-46.676-3.735-9.241-13.88-11.265-21.529-11.272-25.563 25.196-22.822 56.097-52.072 60.398-56.395 6.983-7.018 12.813-15.666 7.181-21.268-5.631-5.604-29.229 2.323-50.183 20.377-20.954 18.053-32.437 38.966-33.644 55.98l-13.933 12.39s23.966-135.976 16.927-127.543c0 0-27.669 130.82-27.66 134.32.009 3.5-.715 14.002 8.275 9.729 2.585-1.229 10.807-8.123 21.369-17.482 1.673 4.98 16.3 45.037 51.934 38.38 37.982-7.096 31.951-19.227 31.951-19.227zm-33.878-83.523c.232 4.198-42.411 42.643-42.411 42.643-.38-13.556 42.027-49.59 42.411-42.643z"/><path d="M271.173 175.794s7.154-13.02-4.84-27.72c-9.952-12.199-26.494 14.312-30.494 21.016-4 6.704-21.866 40.579-10.266 66.69 11.6 26.111 50.427-2.753 57.933-11.292 18.522-21.068 29.841-29.353 31-32.109 1.159-2.757 1-25.759-19.333-2.823-20.334 22.935-20.506 26.353-35.334 37.402-14.232 10.606-32.333 9.198-21-31.568 11.334-40.767 30.667-47.118 29.465-25.594-.583 10.437 2.869 5.998 2.869 5.998"/><path d="M312.661 142.631c-27.19 9.274-25.802 31.301-17.278 40.573a256.94 256.94 0 0 0 2.949 3.148c-3.2 3.65-5.439 6.135-5.439 6.135-8.678 17.785 4.862 9.95 9.607 9.95 1.664 0 4.082-1.837 6.892-4.825 11.599 11.815 16.989 19.228 11.358 37.388-5.814 18.75 9.939 16.175 13.75 6.5 3.653-9.274 5.75-15 2-28.75-2.73-10.01-11.48-18.25-19.306-24.854 9.984-13.843 20.771-33.198 21.497-37.589 1.161-7.007 1.161-16.95-26.03-7.676zm7.083 16.898c-2.048 3.768-8.174 11.354-14.059 18.299-1.462-1.609-2.342-3.039-2.336-4.285.026-4.543 3.526-13.293 14.151-19.668 2.166-1.3 6.992-3.081 2.244 5.654zm75.543 53.46s14.892-19.608 22.892-37.396c8-17.789 13.599-26.629 20.108-26.27 7.592.418-3.108 29.231-6.858 39.731-3.75 10.5-39.219 125.964-47.809 148.769-2.689 7.139-24.608 13.481-16.608-10.519s46-117.316 46-119.325c0-2.009-4.904 5.368-10.952 13.013s-12.759 15.336-17.771 13.691c-5.669-1.86 10.998-21.694 10.998-21.694M442.5 171s1.846-7.667 12.096-13.818c9.673-5.805 15.5-4.5 24 4s7.344 24.936 0 34.5 12-8.686 20.5-28.593 17.875-70.029 22.5-77.256c8-12.5 13.625-14.93 16.5-5.5 3.704 12.15-12.442 56.391-16.472 64.349-4.029 7.958-4.228 29.215-5.528 42-1.369 13.47-2.666 41.318-1 46 1.652 4.639 3.5 13.5-8.5 10s-2.5-58.5-2.5-62.5-3 11.351-19 24.675c-16 13.325-23.36 17.696-28.25 19.851-16.222 7.152-27.627 8.857-17.9-3 9.726-11.856 35.15-33.526 33.15-46.526s-8.452-17.647-14.763-13.553c-4.362 2.829-5.737 7.954-8.391 10.073-5.81 4.636-12.109 8.465-6.442-4.702"/><path d="M429.442 116.685c0 .001 41.326-9.874 58.497-11.032 17.171-1.158 88.182-11.501 89.929 2.536 1.746 14.037-8.149 9.235-13.097 8.496-4.947-.738-59.079-.921-76.832 1.386-17.753 2.308-84.765 7.94-58.497-1.386M385.86 147.25S338.7 229.338 365 235.672c21.002 5.059 30.145-4.812 30.667-10.172 1.833-18.833-6.084-3.833-10.5-1.75-6.06 2.858-17.834 7.25-13.834-7.417 4-14.666 37.257-92.235 14.527-69.083"/><path d="M326.003 236.636s29.263-10.759 32.738-25.49c3.474-14.731 12.686 11.409 6.302 16.994-6.385 5.585-58.894 37.54-39.04 8.496m88.496-135.856s-22.9 6.8-23.693 14.384c-.793 7.583 6.119 8.368 13.585 4.723 7.465-3.645 13.499-16.424 10.108-19.107"/></g></svg>